<?xml version="1.0" encoding="UTF-8" standalone="no"?>
<!-- Created with Inkscape (http://www.inkscape.org/) -->

<svg
   width="48"
   height="48"
   viewBox="0 0 12.7 12.7"
   version="1.1"
   id="svg1"
   inkscape:version="1.4.2 (ebf0e940d0, 2025-05-08)"
   sodipodi:docname="oneil-logo.svg"
   inkscape:export-filename="oneil-logo.png"
   inkscape:export-xdpi="96"
   inkscape:export-ydpi="96"
   xmlns:inkscape="http://www.inkscape.org/namespaces/inkscape"
   xmlns:sodipodi="http://sodipodi.sourceforge.net/DTD/sodipodi-0.dtd"
   xmlns="http://www.w3.org/2000/svg"
   xmlns:svg="http://www.w3.org/2000/svg">
  <sodipodi:namedview
     id="namedview1"
     pagecolor="#ffffff"
     bordercolor="#999999"
     borderopacity="1"
     inkscape:showpageshadow="0"
     inkscape:pageopacity="0"
     inkscape:pagecheckerboard="0"
     inkscape:deskcolor="#d1d1d1"
     inkscape:document-units="px"
     inkscape:zoom="8.3138297"
     inkscape:cx="22.492643"
     inkscape:cy="14.493922"
     inkscape:window-width="1436"
     inkscape:window-height="831"
     inkscape:window-x="0"
     inkscape:window-y="0"
     inkscape:window-maximized="0"
     inkscape:current-layer="layer4"
     showgrid="false" />
  <defs
     id="defs1" />
  <g
     inkscape:groupmode="layer"
     id="layer5"
     inkscape:label="background">
    <circle
       style="display:inline;fill:#040809;fill-opacity:1;stroke:none;stroke-width:0.264583;stroke-linecap:round;stroke-linejoin:round;stroke-dasharray:none"
       id="path17"
       cx="6.3499999"
       cy="6.3499999"
       r="6.3499999" />
  </g>
  <g
     inkscape:groupmode="layer"
     id="layer4"
     inkscape:label="logo"
     style="display:inline">
    <g
       id="g16"
       transform="matrix(0.78571431,0,0,0.78571431,1.3233596,1.3704588)">
      <path
         id="circle13"
         style="fill:#396048;fill-opacity:1;stroke:none;stroke-width:0.264583;stroke-linecap:round;stroke-linejoin:round;stroke-dasharray:none"
         d="M 5.0746257,2.1042644 A 4.2333336,4.2333336 0 0 0 0.84129233,6.3375978 4.2333336,4.2333336 0 0 0 5.0746257,10.570931 4.2333336,4.2333336 0 0 0 6.3975424,10.349756 4.2333336,4.2333336 0 0 1 3.4871257,6.3375978 4.2333336,4.2333336 0 0 1 6.3975424,2.3254395 4.2333336,4.2333336 0 0 0 5.0746257,2.1042644 Z" />
      <path
         id="circle14"
         style="fill:#eff3fe;fill-opacity:1;stroke:none;stroke-width:0.264583;stroke-linecap:round;stroke-linejoin:round;stroke-dasharray:none"
         d="M 5.0746257,2.1042644 A 4.2333336,4.2333336 0 0 1 6.3975424,2.3254395 4.2333336,4.2333336 0 0 1 9.3079591,6.3375978 4.2333336,4.2333336 0 0 1 6.3975424,10.349756 4.2333336,4.2333336 0 0 1 5.0746257,10.570931 H 7.7204591 A 4.2333336,4.2333336 0 0 0 11.953792,6.3375978 4.2333336,4.2333336 0 0 0 7.7204591,2.1042644 Z" />
    </g>
  </g>
</svg>
