<?xml version="1.0" encoding="UTF-8" standalone="no"?>
<svg
   width="1500"
   height="200"
   viewBox="-702 0 1500 200"
   version="1.2"
   id="svg124"
   sodipodi:docname="system-model.svg"
   inkscape:version="1.4.2 (ebf0e940d0, 2025-05-08)"
   xmlns:inkscape="http://www.inkscape.org/namespaces/inkscape"
   xmlns:sodipodi="http://sodipodi.sourceforge.net/DTD/sodipodi-0.dtd"
   xmlns="http://www.w3.org/2000/svg"
   xmlns:svg="http://www.w3.org/2000/svg"
   xmlns:rdf="http://www.w3.org/1999/02/22-rdf-syntax-ns#"
   xmlns:cc="http://creativecommons.org/ns#"
   xmlns:dc="http://purl.org/dc/elements/1.1/"><defs
   id="defs124" />
<sodipodi:namedview
   id="namedview124"
   pagecolor="#ffffff"
   bordercolor="#000000"
   borderopacity="0.25"
   inkscape:showpageshadow="2"
   inkscape:pageopacity="0.0"
   inkscape:pagecheckerboard="0"
   inkscape:deskcolor="#d1d1d1"
   inkscape:zoom="0.43162393"
   inkscape:cx="703.15842"
   inkscape:cy="565.30693"
   inkscape:window-width="1904"
   inkscape:window-height="971"
   inkscape:window-x="8"
   inkscape:window-y="64"
   inkscape:window-maximized="0"
   inkscape:current-layer="svg124" />
<title
   id="title1">Documentation</title>
\n<g
   id="g125"
   transform="matrix(0.95567904,0,0,0.95567904,43.698984,-341.21455)">
  <g
     id="g1">
    <path
       fill="none"
       stroke="#000000"
       stroke-width="4"
       stroke-linecap="round"
       stroke-linejoin="round"
       d="m -418.669,385.809 -10.257,-3.031 -5.251,-1.026 -5.305,-0.695 -10.689,-0.385 -10.652,0.958 -10.449,2.285 -5.096,1.63 -9.835,4.203 -9.231,5.402 -4.343,3.125 -8.055,7.036 -3.681,3.884 -6.594,8.421 -2.887,4.504 -2.599,4.677 -4.293,9.796 -3.031,10.257 -1.027,5.251 -0.695,5.305 -0.385,10.689 0.958,10.653 0.979,5.26 2.936,10.284 1.947,4.984 2.256,4.852 5.402,9.231 3.125,4.343 7.037,8.055 7.99,7.11 8.819,6.052 9.507,4.899 4.966,1.993 5.081,1.676 10.427,2.381 10.643,1.056 10.692,-0.287 5.311,-0.647 10.449,-2.285 5.096,-1.63 9.835,-4.203 4.7,-2.556 8.874,-5.971 8.055,-7.036 3.681,-3.884 3.429,-4.107 6.052,-8.818 2.599,-4.677 4.293,-9.796 3.031,-10.257 1.027,-5.251 1.055,-10.644 0.025,-5.35 -0.312,-5.341 -1.625,-10.572 -1.306,-5.188 -3.577,-10.08 -4.812,-9.552 -5.971,-8.874 -3.392,-4.138 -7.528,-7.597 -8.421,-6.594 -4.505,-2.888 -4.676,-2.599 -9.797,-4.293"
       id="path1" />
  </g>
  <g
     id="g2">
    <path
       fill="none"
       stroke="#000000"
       stroke-width="4"
       stroke-linecap="round"
       stroke-linejoin="round"
       d="m -723.748,415.116 5.413,-0.143 5.55,-0.952 17.654,-1.923 12.048,-1.818 6.921,-0.703 1.023,0.141"
       id="path2" />
  </g>
  <g
     id="g3">
    <path
       fill="none"
       stroke="#000000"
       stroke-width="4"
       stroke-linecap="round"
       stroke-linejoin="round"
       d="m -724.227,417.112 -0.287,1.061 -1.214,18.15 0.198,11.491 -0.433,13.433 0.714,14.207 -0.538,15.291 0.848,13.584 0.056,-0.308 0.2,0.273 0.389,-0.244 0.246,0.261 0.313,-0.205 1.01,0.307 4.9,0.178 6.972,-0.809 0.96,0.162 0.914,-0.387 5.208,0.169 1.254,-0.219 1.091,0.265 4.182,-0.612 5.17,-0.189 0.754,0.206 0.884,-0.315 14.898,0.068 1.096,-0.424 5.642,-0.573 0.361,-0.287 1.462,0.259 10.061,-1.602 1.341,0.081 4.525,-0.739 0.732,-0.414 0.761,0.251 0.839,-0.416 2.078,0.024 2.664,-1.149 -0.027,0.467"
       id="path3" />
  </g>
  <g
     id="g4">
    <path
       fill="none"
       stroke="#000000"
       stroke-width="4"
       stroke-linecap="round"
       stroke-linejoin="round"
       d="m -645.651,420.739 -0.526,0.566 0.428,2.974 0.463,10.919 0.091,10.761 -0.333,9.014 0.659,11.385 -0.354,7.041 1.306,13.881 0.16,5.664 0.611,2.082"
       id="path4" />
  </g>
  <g
     id="g5">
    <path
       fill="none"
       stroke="#000000"
       stroke-width="4"
       stroke-linecap="round"
       stroke-linejoin="round"
       d="m -673.6,409.054 -0.27,0.14 1.269,0.754 0.968,1.036 4.24,2.1 1.8,1.525 2.072,0.717 2.038,1.495 3.123,1.68 1.188,0.279 0.504,0.5 7.306,3.193"
       id="path5" />
  </g>
  <g
     id="g6">
    <path
       fill="none"
       stroke="#000000"
       stroke-width="4"
       stroke-linecap="round"
       stroke-linejoin="round"
       d="m -674.853,410.2 -0.374,1.498 0.953,4.012 0.122,7.444 0.679,4.787 0.661,1.839 2.366,0.142 4.154,-0.662 2.279,0.184 2.917,-0.692 4.336,-0.265 4.871,-1.13 0.749,-0.429 2.864,-0.338 1.479,0.355"
       id="path6" />
  </g>
  <g
     id="g7">
    <path
       fill="none"
       stroke="#000000"
       stroke-width="4"
       stroke-linecap="round"
       stroke-linejoin="round"
       d="m -711.951,441.497 2.454,-0.313 3.669,0.205 6.412,-0.588 1.514,0.37 10.184,-0.09 0.468,-0.26 2.255,0.203 7.162,-0.821 6.796,-0.145 5.274,-0.836 1.426,0.335"
       id="path7" />
  </g>
  <g
     id="g8">
    <path
       fill="none"
       stroke="#000000"
       stroke-width="4"
       stroke-linecap="round"
       stroke-linejoin="round"
       d="m -711.576,453.749 1.127,0.383 1.001,-0.454 3.368,-0.437 10,-0.874 26.887,-0.43 2.967,-0.324 1.08,-0.505 1.507,0.042"
       id="path8" />
  </g>
  <g
     id="g9">
    <path
       fill="none"
       stroke="#000000"
       stroke-width="4"
       stroke-linecap="round"
       stroke-linejoin="round"
       d="m -710.947,467.046 0.685,0.609 1.754,0.161 8.401,-1.037 8.875,0.12 12.046,-1.288 4.787,0.094 4.472,-0.303 5.217,-1.025 0.566,0.227"
       id="path9" />
  </g>
  <g
     id="g10">
    <path
       fill="none"
       stroke="#000000"
       stroke-width="4"
       stroke-linecap="round"
       stroke-linejoin="round"
       d="m -710.829,483.5 -0.514,-0.135 1.65,-0.183 6.468,-0.33 3.888,-1.035 5.312,-0.838 0.918,0.092 1.104,-0.439 8.119,0.012 4.403,-1.029 7.267,0.177 2.924,-0.407 6.311,-0.048 0.274,-0.341 0.606,0.264"
       id="path10" />
  </g>
  <g
     id="g11">
    <path
       fill="none"
       stroke="#000000"
       stroke-width="4"
       stroke-linecap="round"
       stroke-linejoin="round"
       d="m -718.44,519.361 -0.489,6.487 0.423,5.754 -0.227,2.629 0.234,2.424 0.848,2.491 0.765,1.171 0.936,0.672 2.664,0.912 3.264,-1.115"
       id="path11" />
  </g>
  <g
     id="g12">
    <path
       fill="none"
       stroke="#000000"
       stroke-width="4"
       stroke-linecap="round"
       stroke-linejoin="round"
       d="m -724.809,531.122 0.988,-0.621 0.633,0.266 3.748,-0.276 5.277,-1.453 0.358,0.312 0.212,-0.337 1.18,0.335"
       id="path12" />
  </g>
  <g
     id="g13">
    <path
       fill="none"
       stroke="#000000"
       stroke-width="4"
       stroke-linecap="round"
       stroke-linejoin="round"
       d="m -705.36,536.115 2.299,-1.524 0.734,-1.161 0.559,-2.413 -0.636,-2.178 -0.529,-0.203 -1.129,0.46 -1.479,1.138 -0.837,1.171 -0.645,2.442 0.594,3.346 1.605,2.526 2.009,1.094 1.445,0.179 2.212,-0.359 2.625,-1.035"
       id="path13" />
  </g>
  <g
     id="g14">
    <path
       fill="none"
       stroke="#000000"
       stroke-width="4"
       stroke-linecap="round"
       stroke-linejoin="round"
       d="m -694.596,531.166 1.612,1.69 3.451,4.85 5.227,4.166 0.144,-0.367"
       id="path14" />
  </g>
  <g
     id="g15">
    <path
       fill="none"
       stroke="#000000"
       stroke-width="4"
       stroke-linecap="round"
       stroke-linejoin="round"
       d="m -684.561,528.375 0.07,0.431 -4.288,6.496 -1.409,2.698 -3.377,4.579 2.031,-1.816"
       id="path15" />
  </g>
  <g
     id="g16">
    <path
       fill="none"
       stroke="#000000"
       stroke-width="4"
       stroke-linecap="round"
       stroke-linejoin="round"
       d="m -675.538,519.567 0.448,-0.159 0.387,1.084 -0.523,10.971 0.246,2.705 0.637,2.59 0.708,1.062 1.61,0.785 1.647,-0.379 0.823,-1.168"
       id="path16" />
  </g>
  <g
     id="g17">
    <path
       fill="none"
       stroke="#000000"
       stroke-width="4"
       stroke-linecap="round"
       stroke-linejoin="round"
       d="m -679.293,529.844 5.762,-2.285 7.771,-1.192"
       id="path17" />
  </g>
  <g
     id="g18">
    <path
       fill="none"
       stroke="#000000"
       stroke-width="4"
       stroke-linecap="round"
       stroke-linejoin="round"
       d="m -224.146,411.211 -0.354,-0.412 -1.083,0.113 -1.812,1.682 -0.851,1.601 -0.233,1.715 0.485,1.864 0.945,1.392 0.331,-0.097 1.461,0.973 1.494,0.453 2.464,-0.072 1.583,-0.578 1,-1.089 0.688,-2.194 -0.186,-1.559 -1.463,-2.87 -0.953,-0.229 -0.961,-0.677 -0.764,0.328"
       id="path18" />
  </g>
  <g
     id="g19">
    <path
       fill="none"
       stroke="#000000"
       stroke-width="4"
       stroke-linecap="round"
       stroke-linejoin="round"
       d="m -231.323,425.049 -0.488,0.074 -3.894,5.946 -3.465,4.495 -1.198,2.194 -1.117,0.996 -1.061,1.555"
       id="path19" />
  </g>
  <g
     id="g20">
    <path
       fill="none"
       stroke="#000000"
       stroke-width="4"
       stroke-linecap="round"
       stroke-linejoin="round"
       d="m -249.561,447.027 -1.936,1.285 -0.974,1.287 -0.177,1.588 0.567,1.45 1.798,1.494 1.141,0.359 1.746,-0.181 1.637,-1.246 0.754,-2.34 -0.524,-2.504 -1.481,-1.256 -1.037,-0.02 -0.972,-0.505"
       id="path20" />
  </g>
  <g
     id="g21">
    <path
       fill="none"
       stroke="#000000"
       stroke-width="4"
       stroke-linecap="round"
       stroke-linejoin="round"
       d="m -213.398,422.872 -0.258,-0.02 0.262,0.841 7.356,9.487 0.884,1.638 1.411,1.575 0.824,1.737 0.083,-0.24 2.455,3.796 0.224,0.212 -0.031,-0.338 -0.035,0.393"
       id="path21" />
  </g>
  <g
     id="g22">
    <path
       fill="none"
       stroke="#000000"
       stroke-width="4"
       stroke-linecap="round"
       stroke-linejoin="round"
       d="m -198.646,450.072 -0.165,-0.568 -1.042,0.633 -1.199,1.459 -0.303,1.322 0.066,3.026 0.564,1.503 1.111,1.015 2.822,0.255 1.97,-0.569 1.314,-1.097 1.432,-2.672 -0.064,-2.734 -0.33,-0.859 -1.137,-1.003 -2.77,-0.484 -1.301,-0.497 -0.385,-0.466"
       id="path22" />
  </g>
  <g
     id="g23">
    <path
       fill="none"
       stroke="#000000"
       stroke-width="4"
       stroke-linecap="round"
       stroke-linejoin="round"
       d="m -254.16,460.324 0.308,0.168 -0.639,0.24 -9.563,15.992"
       id="path23" />
  </g>
  <g
     id="g24">
    <path
       fill="none"
       stroke="#000000"
       stroke-width="4"
       stroke-linecap="round"
       stroke-linejoin="round"
       d="m -270.163,483.289 -0.414,0.076 -0.868,1.077 -0.331,0.914 -0.116,3.887 0.173,0.899 0.718,0.916 1.564,1.068 1.116,-0.456 1.621,-1.274 0.627,-0.69 0.47,-1.222 -0.14,-2.311 -0.634,-1.296 -0.779,-0.774 -1.05,-0.393"
       id="path24" />
  </g>
  <g
     id="g25">
    <path
       fill="none"
       stroke="#000000"
       stroke-width="4"
       stroke-linecap="round"
       stroke-linejoin="round"
       d="m -243.874,459.743 1.164,1.179 0.571,1.163 1.561,1.379 3.869,4.923 1.079,0.951 5,6.751 1.121,0.463"
       id="path25" />
  </g>
  <g
     id="g26">
    <path
       fill="none"
       stroke="#000000"
       stroke-width="4"
       stroke-linecap="round"
       stroke-linejoin="round"
       d="m -230.532,482.441 -0.029,0.648 -0.397,-0.283 -1.114,0.724 -0.791,1.363 -0.502,1.717 -0.115,1.947 0.566,1.051 3.519,1.679 0.755,0.2 1.644,-0.277 1.365,-1.14 0.825,-1.667 -0.301,-3.66 -0.79,-0.977 -1.475,-0.344"
       id="path26" />
  </g>
  <g
     id="g27">
    <path
       fill="none"
       stroke="#000000"
       stroke-width="4"
       stroke-linecap="round"
       stroke-linejoin="round"
       d="m -240.811,507.904 -0.196,-0.106 -1.281,2.537 -1.689,5.603 -0.79,4.041 -3.813,10.558 0.65,-1.083"
       id="path27" />
  </g>
  <g
     id="g28">
    <path
       fill="none"
       stroke="#000000"
       stroke-width="4"
       stroke-linecap="round"
       stroke-linejoin="round"
       d="m -240.29,508.697 1.49,13.352 0.734,3.141 1.76,4.789"
       id="path28" />
  </g>
  <g
     id="g29">
    <path
       fill="none"
       stroke="#000000"
       stroke-width="4"
       stroke-linecap="round"
       stroke-linejoin="round"
       d="m -247.078,524.323 -0.264,-0.552 0.945,-0.633 2.381,0.105 3.899,-0.853 0.581,0.484"
       id="path29" />
  </g>
  <g
     id="g30">
    <path
       fill="none"
       stroke="#000000"
       stroke-width="4"
       stroke-linecap="round"
       stroke-linejoin="round"
       d="m -218.971,506.457 0.493,-0.1 -0.534,-0.437 -1.603,-0.115 -2.531,0.591 -4.045,2.563 -0.313,0.98 0.238,0.577 1.674,0.971 4.064,1.184 2.766,1.654 1.19,1.88 0.878,2.543 0.39,3 -0.355,1.338 -1.133,1.149 -2.023,0.831 -4.068,0.387 -0.936,0.43 -1.662,0.073 -0.025,-0.319"
       id="path30" />
  </g>
  <g
     id="g31">
    <path
       fill="none"
       stroke="#000000"
       stroke-width="4"
       stroke-linecap="round"
       stroke-linejoin="round"
       d="m -208.406,505.963 3.125,0.11 9.293,-0.883 0.386,0.348 -0.562,-0.742"
       id="path31" />
  </g>
  <g
     id="g32">
    <path
       fill="none"
       stroke="#000000"
       stroke-width="4"
       stroke-linecap="round"
       stroke-linejoin="round"
       d="m -202.776,507.701 0.779,13.066 0.535,2.079 0.299,-1.081"
       id="path32" />
  </g>
  <g
     id="g33">
    <path
       fill="none"
       stroke="#000000"
       stroke-width="4"
       stroke-linecap="round"
       stroke-linejoin="round"
       d="m -102.507,487.609 1.651,5.173 4.26,9.986 5.4776,9.373 3.1692,4.41 3.4399,4.202 7.6365,7.717 8.5433,6.698 4.5701,2.934 9.6471,4.978 5.0389,2.026 5.1562,1.705 10.5822,2.423 5.3843,0.709 10.8488,0.397 10.81313,-0.966 10.60681,-2.313 10.23326,-3.624 9.6984,-4.878 9.0104,-6.055 4.2024,-3.44 7.7162,-7.637 3.4834,-4.166 3.2149,-4.377 5.5747,-9.316 4.3632,-9.94 1.705,-5.156 2.4232,-10.583 0.7087,-5.384 0.3973,-10.849 -0.3128,-5.421 -0.6527,-5.392 -2.3131,-10.607 -1.6513,-5.173 -4.2596,-9.986 -2.5915,-4.772 -6.0553,-9.011 -7.1369,-8.18 -8.1059,-7.222 -4.3769,-3.215 -9.3154,-5.574 -9.9407,-4.363 -5.15619,-1.705 -5.2530244,-1.378 -10.7134856,-1.754 -5.4182,-0.37 -10.8524,0.285 -5.3913,0.653 -10.6069,2.313 -10.2332,3.624 -4.9258,2.287 -4.7726,2.591 -9.0104,6.056 -8.1805,7.136 -3.7381,3.94 -3.4834,4.166 -6.1486,8.947 -4.9788,9.648 -2.0251,5.038 -1.705,5.157 -2.423,10.582 -1.078,10.802 -0.029,5.431 0.966,10.813 2.313,10.607"
       id="path33" />
  </g>
  <g
     id="g34">
    <path
       fill="none"
       stroke="#000000"
       stroke-width="4"
       stroke-linecap="round"
       stroke-linejoin="round"
       d="m -52.262,428.175 -1.13,10.872 -2.1681,8.327 -0.6906,5.618 0.6304,-2.8 1.0517,-9.982 1.9474,-13.506 1.0039,1.667 0.3944,1.913 -0.0242,9.86 0.3328,3.458 0.5504,1.909 1.8799,-3.427 2.9844,-8.507 2.9794,-5.145 0.6074,-1.909 0.4444,2.925 -0.997,16.946 0.6465,4.412 0.3974,-0.361 0.44,0.302 0.133,-0.178"
       id="path34" />
  </g>
  <g
     id="g35">
    <path
       fill="none"
       stroke="#000000"
       stroke-width="4"
       stroke-linecap="round"
       stroke-linejoin="round"
       d="m -33.9672,441.376 -0.2644,0.05 -1.828,3.869 -0.4633,2.426 0.1815,1.532 0.6901,1.036 0.8623,0.486 1.0973,-0.167 1.4806,-1.089 2.4896,-2.929 0.8143,-1.797 -0.069,-1.55 -0.8479,-1.37 -2.1131,-0.735 -2.9106,0.382 -0.7616,0.671"
       id="path35" />
  </g>
  <g
     id="g36">
    <path
       fill="none"
       stroke="#000000"
       stroke-width="4"
       stroke-linecap="round"
       stroke-linejoin="round"
       d="m -15.6261,427.266 -0.0167,7.974 -1.5693,11.456 0.0881,1.217 0.4051,0.636 0.2681,-2.479 -0.4026,-4 -0.6656,-1.877 -0.9436,-0.462 -0.6436,0.08 -2.7375,1.648 -1.3819,1.404 -2.1588,3.359 -0.6249,1.891 0.1176,1.282 0.5681,1.029 1.5347,0.721 2.6903,-0.669 2.3802,-1.637"
       id="path36" />
  </g>
  <g
     id="g37">
    <path
       fill="none"
       stroke="#000000"
       stroke-width="4"
       stroke-linecap="round"
       stroke-linejoin="round"
       d="m -10.5121,444.818 0.2183,0.137 1.67798,-1.337 0.86886,-1.346 0.23996,-2.325 -0.20901,-0.566 -0.72193,-0.455 -0.85559,0.372 -0.91717,0.965 -1.5667,3.3 -0.3366,2.932 0.5443,1.921 0.8531,1.314 1.69865,0.547 1.70816,-0.826 2.39093,-2.074"
       id="path37" />
  </g>
  <g
     id="g38">
    <path
       fill="none"
       stroke="#000000"
       stroke-width="4"
       stroke-linecap="round"
       stroke-linejoin="round"
       d="m 2.81493,428.4 0.25296,1.62 -0.20425,2.948 -1.53983,11.429 -0.05902,3.432 0.34876,1.327 0.72854,0.693 0.55258,0.02 1.6012,-1.049 1.11884,-1.784"
       id="path38" />
  </g>
  <g
     id="g39">
    <path
       fill="none"
       stroke="#000000"
       stroke-width="4"
       stroke-linecap="round"
       stroke-linejoin="round"
       d="m -64.6717,472.412 -0.4619,15.005 -0.7375,6.899 0.0205,0.231 0.2251,-0.405"
       id="path39" />
  </g>
  <g
     id="g40">
    <path
       fill="none"
       stroke="#000000"
       stroke-width="4"
       stroke-linecap="round"
       stroke-linejoin="round"
       d="m -64.0761,472.443 0.858,-0.997 1.05,-0.628 2.6089,-0.726 5.3698,-0.062 1.2462,0.486 1.2537,1.205 0.6621,2.26 0.1078,1.64 -0.3789,1.493 -1.0047,1.787 -1.9115,2.463 -3.4859,2.444 -4.3501,2.278 1.8848,0.889 1.6699,1.308 2.2272,2.859 2.0678,4.68 0.3188,0.345 -0.0738,-0.734"
       id="path40" />
  </g>
  <g
     id="g41">
    <path
       fill="none"
       stroke="#000000"
       stroke-width="4"
       stroke-linecap="round"
       stroke-linejoin="round"
       d="m -48.6352,490.01 4.2729,-3.026 1.2637,-2.194 -0.1758,-0.941 -0.7259,-0.911 -0.6676,-0.047 -1.4056,0.843 -1.3601,1.796 -1.0247,4.107 0.0539,2.588 1.2117,1.415 1.4562,0.13 4.6805,-1.488"
       id="path41" />
  </g>
  <g
     id="g42">
    <path
       fill="none"
       stroke="#000000"
       stroke-width="4"
       stroke-linecap="round"
       stroke-linejoin="round"
       d="m -33.3409,482.388 -1.4408,1.174 -1.9653,2.691 -0.1448,0.801 0.1929,0.411 2.8499,0.385 1.7323,0.874 1.6641,1.693 0.2977,1.327 -0.5143,1.079 -1.732,1.169 -1.7721,0.539 -1.4714,-0.177"
       id="path42" />
  </g>
  <g
     id="g43">
    <path
       fill="none"
       stroke="#000000"
       stroke-width="4"
       stroke-linecap="round"
       stroke-linejoin="round"
       d="m -24.6205,487.885 -0.1258,-0.315 -0.8542,2.227 -0.1828,2.614 0.4687,1.579 0.5582,0.445 1.914,0.276 3.1669,-1.382 1.6831,-1.683 0.4437,-1.21 -0.1899,-1.051 -1.5681,-1.842 -2.633,-1.158 -1.8361,-0.047 -1.7091,1.467 -0.0691,0.742"
       id="path43" />
  </g>
  <g
     id="g44">
    <path
       fill="none"
       stroke="#000000"
       stroke-width="4"
       stroke-linecap="round"
       stroke-linejoin="round"
       d="m -11.2147,474.822 0.5,0.044 -0.5042,5.148 -1.5471,8.604 0.1434,3.468 0.9765,1.915 1.2134,0.492 1.11732,-0.7 2.05271,-3.041"
       id="path44" />
  </g>
  <g
     id="g45">
    <path
       fill="none"
       stroke="#000000"
       stroke-width="4"
       stroke-linecap="round"
       stroke-linejoin="round"
       d="m -5.8087,483.908 1.58109,6.813 1.62662,3.208 1.920804,-2.728 1.490357,-4.979 1.697169,-1.817"
       id="path45" />
  </g>
  <g
     id="g46">
    <path
       fill="none"
       stroke="#000000"
       stroke-width="4"
       stroke-linecap="round"
       stroke-linejoin="round"
       d="m 6.00545,488.501 1.31818,-0.425 1.1676,-1.208 1.73207,-2.562 0.2932,-1.654 -2.01047,0.775 -1.32562,1.303 -1.47992,2.842 -0.14004,1.989 1.43731,2.26 1.23523,0.671 1.70835,-0.174 3.65836,-1.895"
       id="path46" />
  </g>
  <g
     id="g47">
    <path
       fill="none"
       stroke="#000000"
       stroke-width="4"
       stroke-linecap="round"
       stroke-linejoin="round"
       d="m 16.4251,486.696 0.3773,1.805 0.0038,2.659 -0.2859,-3.372 0.396,-1.802 0.8372,-1.517 3.1476,-1.978 2.4926,-0.654"
       id="path47" />
  </g>
  <g
     id="g48">
    <path
       fill="none"
       stroke="#000000"
       stroke-width="4"
       stroke-linecap="round"
       stroke-linejoin="round"
       d="m 187.663,503.558 0.4,0.153 -0.249,0.707 0.004,15.919 0.416,8.487"
       id="path48" />
  </g>
  <g
     id="g49">
    <path
       fill="none"
       stroke="#000000"
       stroke-width="4"
       stroke-linecap="round"
       stroke-linejoin="round"
       d="m 198.84,505.083 -0.397,0.093 0.262,2.94 -0.443,5.433 0.33,3.392 -0.019,6.771 0.431,3.577 -0.22,0.539"
       id="path49" />
  </g>
  <g
     id="g50">
    <path
       fill="none"
       stroke="#000000"
       stroke-width="4"
       stroke-linecap="round"
       stroke-linejoin="round"
       d="m 199.025,505.48 0.47,-0.036 0.031,-0.37 1.164,-0.752 3.424,-0.823 1.368,0.069 0.715,0.519 1.581,0.321 1.507,1.412 0.303,1.219 -0.107,2.309 -1.765,3.85 -3.739,1.969 -4.087,0.986 0.248,-0.183 0.548,0.656 1.427,0.604 4.6,4.722 3.858,4.653 0.037,-0.259 0.529,0.184"
       id="path50" />
  </g>
  <g
     id="g51">
    <path
       fill="none"
       stroke="#000000"
       stroke-width="4"
       stroke-linecap="round"
       stroke-linejoin="round"
       d="m 172.705,420.259 -2.332,-0.273 -0.576,0.453 -0.458,-0.127 -1.703,0.656 -1.412,1.094 -1.202,0.461 -1.834,1.693 -1.114,1.775 -1.21,3.714 -0.205,2.341 1.593,5.818 3.836,7.103 0.105,2.271 -1.394,4.872 -0.855,1.335 -1.49,1.32 -2.889,1.282 1.694,0.011 2.227,0.976 0.214,-0.141 1.958,3.316 0.65,1.97 -0.022,3.157 -1.043,4.798 -0.374,5.208 0.455,3.226 1.335,3.447 1.96,2.25 2.344,1.433 3.707,0.088 1.634,-1.175 0.053,0.215 0.3,-0.149"
       id="path51" />
  </g>
  <g
     id="g52">
    <path
       fill="none"
       stroke="#000000"
       stroke-width="4"
       stroke-linecap="round"
       stroke-linejoin="round"
       d="m 225.435,417.572 1.291,-0.597 2.659,-0.21 1.029,1.563 0.61,0.213 1.22,2.771 0.289,1.22 -0.22,2.988 -2.549,9.285 -0.285,4.606 0.83,2.867 1.254,2.16 1.733,1.575 2.206,0.931 -1.173,-0.227 -1.251,1.352 -1.878,2.789 -0.712,2.5 0.974,4.038 2.247,5.731 0.902,3.894 0.915,5.517 -0.089,2.798 -0.502,2.021 -2.819,3.454 -0.55,0.231 -0.292,-0.223 -1.496,0.649"
       id="path52" />
  </g>
  <g
     id="g53">
    <path
       fill="none"
       stroke="#000000"
       stroke-width="4"
       stroke-linecap="round"
       stroke-linejoin="round"
       d="m 180.284,434.721 -0.587,-10e-4 0.038,2.184 0.316,0.204 0.958,-1.229 -1.11,-0.759 0.331,1.049 0.3,0.202 0.305,-0.423"
       id="path53" />
  </g>
  <g
     id="g54">
    <path
       fill="none"
       stroke="#000000"
       stroke-width="4"
       stroke-linecap="round"
       stroke-linejoin="round"
       d="m 188.908,434.51 1.943,-0.248 5.695,0.4 2.097,-0.456 2.854,0.111 1.33,-0.347 5.544,-0.117 6.01,-1.239"
       id="path54" />
  </g>
  <g
     id="g55">
    <path
       fill="none"
       stroke="#000000"
       stroke-width="4"
       stroke-linecap="round"
       stroke-linejoin="round"
       d="m 180.015,448.899 -0.153,0.951 0.255,0.739 0.753,-0.313 0.258,-0.881 -0.501,-0.439 -0.651,0.682 0.105,0.883 0.681,0.336 0.77,-0.338 -0.175,-0.867 -0.395,0.023"
       id="path55" />
  </g>
  <g
     id="g56">
    <path
       fill="none"
       stroke="#000000"
       stroke-width="4"
       stroke-linecap="round"
       stroke-linejoin="round"
       d="m 191.729,449.397 1.469,-0.183 1.442,0.354 5.163,0.005 6.347,-0.589 5.393,-1.086 2.247,-0.213 0.241,0.202 -0.273,0.119"
       id="path56" />
  </g>
  <g
     id="g57">
    <path
       fill="none"
       stroke="#000000"
       stroke-width="4"
       stroke-linecap="round"
       stroke-linejoin="round"
       d="m 180.864,463.708 -0.215,1.344 0.457,0.736 0.856,-0.531 0.447,-0.915 -0.117,-0.457 -1.085,0.37 -0.471,0.625 -0.025,0.828 0.414,0.315 0.739,-0.296 0.26,-0.393 -0.413,-0.192"
       id="path57" />
  </g>
  <g
     id="g58">
    <path
       fill="none"
       stroke="#000000"
       stroke-width="4"
       stroke-linecap="round"
       stroke-linejoin="round"
       d="m 190.98,464.125 0.566,-0.438 1.202,0.117 3.225,-0.773 1.023,0.25 1.435,-0.368 3.205,0.109 4.76,-0.809 1.089,0.29 1.784,-0.546 0.71,0.174 3.633,-0.372"
       id="path58" />
  </g>
  <g
     id="g59">
    <path
       fill="none"
       stroke="#000000"
       stroke-width="4"
       stroke-linecap="round"
       stroke-linejoin="round"
       d="m 479.692,390.326 -9.187,-6.113 -4.863,-2.612 -5.017,-2.302 -10.419,-3.636 -10.792,-2.302 -10.995,-0.932 -11.025,0.454 -5.47,0.745 -10.745,2.512 -5.233,1.757 -5.113,2.082 -9.783,5.105 -4.631,3.003 -8.653,6.848 -3.987,3.818 -7.217,8.348 -6.113,9.187 -2.612,4.863 -4.284,10.169 -2.975,10.626 -0.982,5.432 -0.931,10.996 0.053,5.52 1.146,10.975 1.087,5.412 3.182,10.566 4.48,10.084 2.707,4.811 3.003,4.632 6.848,8.653 7.878,7.727 4.288,3.477 4.497,3.201 9.552,5.524 5.018,2.302 10.418,3.637 10.792,2.302 10.996,0.931 5.519,-0.054 10.976,-1.145 10.745,-2.512 5.233,-1.757 10.084,-4.481 4.811,-2.706 4.632,-3.003 8.653,-6.848 7.726,-7.878 3.477,-4.288 3.201,-4.497 5.525,-9.552 4.283,-10.17 1.655,-5.266 2.302,-10.792 0.932,-10.996 -0.454,-11.025 -0.745,-5.47 -2.512,-10.745 -1.757,-5.233 -2.082,-5.112 -5.105,-9.783 -3.003,-4.632 -6.848,-8.653 -3.818,-3.987 -8.348,-7.217"
       id="path59" />
  </g>
  <g
     id="g60">
    <path
       fill="none"
       stroke="#000000"
       stroke-width="4"
       stroke-linecap="round"
       stroke-linejoin="round"
       d="m 664.654,401.222 0.038,-0.242 -1.055,0.173 -0.354,-0.306 -2.122,0.039 -0.426,-0.289 -6.477,0.643 -1.84,0.597 -7.015,4.119 -2.731,2.495 -1.716,2.65 -5.426,10.622 -0.747,1.945 -0.931,4.204 -0.247,4.46 0.665,5.972 1.908,5.92 0.894,1.759 3.304,4.524 0.507,0.18 2.506,2.612 5.867,2.628 0.362,0.466 0.395,-0.077 3.675,1.89 2.554,0.897 6.015,0.724 2.226,0.624 3.716,-0.078 2.203,0.391 5.627,-0.004 0.802,-0.399 2.081,-0.245 5.534,-2.054 2.462,-1.761 3.948,-3.678 3.41,-3.964 2.82,-4.371 1.655,-4.218 1.304,-11.957 -0.35,-3.769 -0.841,-3.043 0.032,-0.903 -5.191,-10.195 -2.401,-3.491 -1.41,-1.288 -1.714,-0.997 -0.356,-0.695 -2.341,-1.609 -1.947,-0.876 -2.878,-0.492 -0.498,0.179 -1.724,-0.73 -3.068,0.09 -2.262,0.641 -0.436,-0.281 -0.703,0.229 -1.829,-0.294 -0.713,-0.387 -3.483,0.019 -3.735,-0.686"
       id="path60" />
  </g>
  <g
     id="g61">
    <path
       fill="none"
       stroke="#000000"
       stroke-width="4"
       stroke-linecap="round"
       stroke-linejoin="round"
       d="m 642.72,410.541 1.134,0.306 0.101,-0.211 1.482,0.966 0.699,1.243 2.034,1.469 1.31,1.617 0.705,2.218 -0.077,7.409 -0.984,3.102 -0.182,-0.135 -1.161,1.158 -0.203,-0.118 -1.365,1.595 -0.771,0.16 -0.963,0.748 -0.322,-0.153 -1.302,1.314 -1.236,4.373 0.44,5.682 -1.566,2.221"
       id="path61" />
  </g>
  <g
     id="g62">
    <path
       fill="none"
       stroke="#000000"
       stroke-width="4"
       stroke-linecap="round"
       stroke-linejoin="round"
       d="m 666.496,414.588 -1.068,0.068 -1.722,1.086 -1.341,1.605 -1.191,2.108 -0.474,1.325 -0.174,2.07 0.933,2.666 0.113,-0.229 1.588,1.185 1.472,-0.268 0.668,0.365 0.3,-0.282 0.554,0.149 2.967,-0.787 0.939,0.212 0.302,-0.336 0.147,0.227 0.301,-0.475 0.459,-0.176 -0.003,0.297 0.366,-0.413 0.16,0.286 0.608,-0.39 0.115,0.191 0.461,-0.406 2.473,-0.314 0.241,0.277 0.184,-0.28 1.851,0.326 0.087,-0.234 0.959,0.658 0.06,-0.222 0.886,0.329 1.075,0.869 0.184,-0.222 1.004,0.434 0.921,2.227 0.131,1.98 -0.953,3.261 -0.804,0.484 -1.253,1.768 -1.178,0.711 -1.91,1.947 -1.858,1.024 -3.231,1.033 -1.284,0.93 -0.245,0.794 0.118,2.286 1.539,2.283 1.068,0.266 2.191,-0.521 1.041,0.243 0.795,0.636 0.681,1.145 2.012,4.761 -0.83,5.277"
       id="path62" />
  </g>
  <g
     id="g63">
    <path
       fill="none"
       stroke="#000000"
       stroke-width="4"
       stroke-linecap="round"
       stroke-linejoin="round"
       d="m 666.404,412.554 -0.098,-0.28 0.299,0.473 0.737,0.248 1.562,-0.236 1.315,-0.747 0.874,0.139 2.979,-0.617 0.266,0.209 1.84,-0.273 0.199,0.267 1.034,-0.292 2.452,0.143 0.349,-0.236 3.99,0.548 0.677,0.373 0.12,0.657 0.096,-0.359 0.04,0.278 0.614,0.206 3.009,-1.727 1.177,-0.094"
       id="path63" />
  </g>
  <g
     id="g64">
    <path
       fill="none"
       stroke="#000000"
       stroke-width="4"
       stroke-linecap="round"
       stroke-linejoin="round"
       d="m 687.992,433.68 1.889,0.258 3.706,4.478 1.565,3.3 0.735,2.78 -0.199,1.104 -0.749,0.822"
       id="path64" />
  </g>
  <g
     id="g65">
    <path
       fill="none"
       stroke="#000000"
       stroke-width="4"
       stroke-linecap="round"
       stroke-linejoin="round"
       d="m 687.51,431.732 -0.153,0.46 0.31,-0.595 0.346,0.087 0.958,-0.64 2.24,-0.045 2.223,1.538 2.798,0.422 0.543,0.45 1.186,-0.252"
       id="path65" />
  </g>
  <g
     id="g66">
    <path
       fill="none"
       stroke="#000000"
       stroke-width="4"
       stroke-linecap="round"
       stroke-linejoin="round"
       d="m 621.955,479.004 1.415,18.857 0.408,1.089 0.785,0.497 0.125,-0.313 0.415,0.219 2.482,-0.984 1.234,-0.069 2.203,0.572 0.603,-0.281"
       id="path66" />
  </g>
  <g
     id="g67">
    <path
       fill="none"
       stroke="#000000"
       stroke-width="4"
       stroke-linecap="round"
       stroke-linejoin="round"
       d="m 622.12,486.035 1.513,-0.63 3.546,0.475 0.566,-0.352 0.786,0.031"
       id="path67" />
  </g>
  <g
     id="g68">
    <path
       fill="none"
       stroke="#000000"
       stroke-width="4"
       stroke-linecap="round"
       stroke-linejoin="round"
       d="m 621.393,473.6 -0.451,-0.227 2.691,-0.846 4.797,0.248 1.326,-0.369 0.636,0.829"
       id="path68" />
  </g>
  <g
     id="g69">
    <path
       fill="none"
       stroke="#000000"
       stroke-width="4"
       stroke-linecap="round"
       stroke-linejoin="round"
       d="m 636.039,486.341 -0.249,0.661 1.355,3.371 2.708,6.119 1.866,3.166 0.366,-3.574 1.256,-5.208 0.442,-3.43 0.462,-0.998 0.188,0.087"
       id="path69" />
  </g>
  <g
     id="g70">
    <path
       fill="none"
       stroke="#000000"
       stroke-width="4"
       stroke-linecap="round"
       stroke-linejoin="round"
       d="m 652.581,488.42 -0.488,-0.848 -0.808,0.053 -1.189,0.815 -1.082,1.845 -0.73,2.567 -0.165,2.786 0.105,1.287 0.905,2.528 1.639,2.021 1.374,0.348 0.963,-0.485 2.602,-7.05 0.851,-5.412 -0.242,-2.136 -0.208,3.8 0.867,5.757 0.914,2.629 0.58,0.375 0.57,-0.474"
       id="path70" />
  </g>
  <g
     id="g71">
    <path
       fill="none"
       stroke="#000000"
       stroke-width="4"
       stroke-linecap="round"
       stroke-linejoin="round"
       d="m 663.576,472.116 0.01,5.996 -0.546,9.946 0.419,8.019 0.962,3.609 0.546,0.975 1.449,-0.229 1.439,-1.982 0.669,-0.693 0.262,0.067"
       id="path71" />
  </g>
  <g
     id="g72">
    <path
       fill="none"
       stroke="#000000"
       stroke-width="4"
       stroke-linecap="round"
       stroke-linejoin="round"
       d="m 670.579,484.586 -0.296,2.714 0.13,6.169 0.423,2.801 1.071,2.227 1.187,0.262 1.104,-0.366 1.527,-1.454 2.018,-4.378 1.46,-7.229 -0.42,4.301 0.197,6.376 0.927,3.207 0.672,-0.536"
       id="path72" />
  </g>
  <g
     id="g73">
    <path
       fill="none"
       stroke="#000000"
       stroke-width="4"
       stroke-linecap="round"
       stroke-linejoin="round"
       d="m 690.276,486.471 -0.789,-0.914 -0.868,-0.015 -1.285,1.343 -1.029,1.714 -0.682,1.482 -0.324,1.764 0.141,1.81 0.55,1.616 0.448,0.747 1.351,1.092 0.971,0.272 0.756,-0.354 3.56,-7.44 0.793,-4.265 -0.312,3.169 0.768,7.058 0.849,2.548 0.375,0.363 0.535,-0.64"
       id="path73" />
  </g>
  <g
     id="g74">
    <path
       fill="none"
       stroke="#000000"
       stroke-width="4"
       stroke-linecap="round"
       stroke-linejoin="round"
       d="m 702.964,470.173 0.314,-0.197 -0.186,0.182 1.171,5.342 -0.497,11.527 0.558,4.782 1.061,1.501 1.916,0.673 1.889,-0.317 1.42,-0.851"
       id="path74" />
  </g>
  <g
     id="g75">
    <path
       fill="none"
       stroke="#000000"
       stroke-width="4"
       stroke-linecap="round"
       stroke-linejoin="round"
       d="m 701.35,485.801 0.215,-1.134 1.111,-0.759 5.583,-0.571"
       id="path75" />
  </g>
  <g
     id="g76">
    <path
       fill="none"
       stroke="#000000"
       stroke-width="4"
       stroke-linecap="round"
       stroke-linejoin="round"
       d="m 714.494,486.294 0.454,0.557 2.539,-1.819 0.975,-2.014 0.002,-1.157 -0.497,-0.866 -0.906,0.029 -2.521,2.079 -0.469,1.674 -0.13,2.182 0.273,2.043 0.717,1.908 0.491,0.783 0.79,0.279 2.183,0.082 2.774,-0.385 2.345,0.512"
       id="path76" />
  </g>
  <g
     id="g77">
    <path
       fill="none"
       stroke="#000000"
       stroke-width="4"
       stroke-linecap="round"
       stroke-linejoin="round"
       d="m 733.548,469.455 0.48,-0.027 0.296,0.544 0.398,2.456 0.242,20.572 -0.723,-5.55 -0.856,-2.204 -1.232,-1.22 -1.702,0.136 -1.578,1.686 -1.511,2.986 -0.285,1.735 0.308,2.778 0.74,0.816 1.41,0.171 1.234,-0.466 1.524,-0.069 0.896,-0.553"
       id="path77" />
  </g>
  <g
     id="g78">
    <path
       fill="none"
       stroke="#000000"
       stroke-width="4"
       stroke-linecap="round"
       stroke-linejoin="round"
       d="m 644.569,513.343 0.391,0.341 -0.125,1.714 0.706,5.726 0.517,12.326 -0.568,-1.033 -0.122,-1.015 0.531,-6.79 0.159,-12.651 1.991,7.889 1.494,3.987 1.699,2.115 0.201,-0.119 1.122,1.108 1.086,-0.983 1.535,-5.031 1.281,-3.039 3.452,-5.629 0.578,1.061 0.247,6.505 1.118,9.709 0.778,2.971 1.217,-0.922"
       id="path78" />
  </g>
  <g
     id="g79">
    <path
       fill="none"
       stroke="#000000"
       stroke-width="4"
       stroke-linecap="round"
       stroke-linejoin="round"
       d="m 668.669,523.658 -0.213,4.068 1.096,2.334 1.49,1.003 1.601,-0.402 1.997,-2.154 0.737,-2.184 0.1,-1.995 -0.65,-1.216 -0.997,-1.01 -2.266,-0.854 -1.855,0.862 -0.598,1.184 0.09,1.884"
       id="path79" />
  </g>
  <g
     id="g80">
    <path
       fill="none"
       stroke="#000000"
       stroke-width="4"
       stroke-linecap="round"
       stroke-linejoin="round"
       d="m 685.923,510.266 1.112,15.089 0.739,3.05 -2.179,-4.753 -2.341,-3.529 -1.243,0.57 -2.417,2.636 -0.93,2.151 -0.09,1.851 0.356,1.532 1.38,1.47 2.135,0.168 1.556,-0.38 2.674,-1.792"
       id="path80" />
  </g>
  <g
     id="g81">
    <path
       fill="none"
       stroke="#000000"
       stroke-width="4"
       stroke-linecap="round"
       stroke-linejoin="round"
       d="m 694.124,526.629 2.25,-3.569 0.319,-1.196 -0.598,-1.919 -0.894,-0.79 -0.802,-0.181 -2.094,2.059 -0.993,3.468 0.496,3.388 0.595,1.264 0.857,0.904 1.267,0.688 1.491,0.268 2.449,-0.408 2.923,-1.753 1.064,-1.643"
       id="path81" />
  </g>
  <g
     id="g82">
    <path
       fill="none"
       stroke="#000000"
       stroke-width="4"
       stroke-linecap="round"
       stroke-linejoin="round"
       d="m 706.779,510.057 -0.263,0.602 1.131,5.389 0.565,5.374 1.189,3.344 1.26,2.108 0.775,0.686 1.347,-0.029 1.806,-1.49"
       id="path82" />
  </g>
  <g
     id="g83">
    <path
       fill="none"
       stroke="#000000"
       stroke-width="4"
       stroke-linecap="round"
       stroke-linejoin="round"
       d="m 374.456,447.248 0.227,2.275 -0.513,5.634 0.212,6.423 -0.615,6.455 0.178,3.261 0.634,2.897 0.881,0.247 1.132,-0.655 2.653,-0.678 3.156,-0.012 3.956,-1.104 0.082,0.301 -0.082,-0.606"
       id="path83" />
  </g>
  <g
     id="g84">
    <path
       fill="none"
       stroke="#000000"
       stroke-width="4"
       stroke-linecap="round"
       stroke-linejoin="round"
       d="m 375.18,458.703 0.814,0.424 3.974,-0.987 1.399,-0.025"
       id="path84" />
  </g>
  <g
     id="g85">
    <path
       fill="none"
       stroke="#000000"
       stroke-width="4"
       stroke-linecap="round"
       stroke-linejoin="round"
       d="m 375.729,444.283 -0.317,0.133 0.285,0.176 3.955,0.227 3.824,0.746 0.969,-0.07 1.964,0.565 1.503,-0.397 0.099,0.51"
       id="path85" />
  </g>
  <g
     id="g86">
    <path
       fill="none"
       stroke="#000000"
       stroke-width="4"
       stroke-linecap="round"
       stroke-linejoin="round"
       d="m 391.133,460.279 0.927,1.445 0.71,4.83 0.623,2.011 2.279,4.279 1.016,-2.485 2.376,-8.609 0.789,-1.64 0.71,-0.545"
       id="path86" />
  </g>
  <g
     id="g87">
    <path
       fill="none"
       stroke="#000000"
       stroke-width="4"
       stroke-linecap="round"
       stroke-linejoin="round"
       d="m 409.798,460.897 0.523,-1.12 -0.263,-0.52 -0.941,-0.637 -1.107,0.106 -1.806,1.466 -1.253,2.255 -0.561,2.161 -0.084,2.471 0.241,2.145 0.888,2.961 0.729,0.506 0.899,-0.506 2.647,-3.424 1.23,-2.883 0.812,-5.625 -0.753,5.712 0.521,4.616 0.671,1.621 0.758,0.767 0.895,-0.212 0.977,-1.307"
       id="path87" />
  </g>
  <g
     id="g88">
    <path
       fill="none"
       stroke="#000000"
       stroke-width="4"
       stroke-linecap="round"
       stroke-linejoin="round"
       d="m 418.207,442.104 0.353,0.091 -0.061,2.612 -0.869,8.778 1.257,11.147 0.765,2.246 1.57,2.735 2.493,-0.734"
       id="path88" />
  </g>
  <g
     id="g89">
    <path
       fill="none"
       stroke="#000000"
       stroke-width="4"
       stroke-linecap="round"
       stroke-linejoin="round"
       d="m 425.099,457.703 0.1,6.163 1.371,4.146 1.56,1.778 0.554,0.393 2.108,-0.286 1.336,-1.436 1.716,-2.981 0.598,-2.578 -0.252,-6.355 2.165,10.527 1.897,1.417 1.464,-0.305"
       id="path89" />
  </g>
  <g
     id="g90">
    <path
       fill="none"
       stroke="#000000"
       stroke-width="4"
       stroke-linecap="round"
       stroke-linejoin="round"
       d="m 450.064,457.127 -0.892,-0.568 -1.677,0.277 -0.763,0.553 -0.652,1.591 -0.657,2.669 -0.055,2.399 0.427,1.716 0.921,1.697 1.041,0.752 0.596,-0.049 1.946,-1.862 2.172,-4.903 -0.353,-3.063 0.04,5.238 1.545,3.484 0.782,0.977 0.631,0.077 0.954,-0.472 1.176,-1.297"
       id="path90" />
  </g>
  <g
     id="g91">
    <path
       fill="none"
       stroke="#000000"
       stroke-width="4"
       stroke-linecap="round"
       stroke-linejoin="round"
       d="m 460.044,443.172 -0.063,-0.775 0.795,2.224 0.43,2.222 -0.586,11.147 0.401,3.877 2.386,4.832 2.541,-1.799"
       id="path91" />
  </g>
  <g
     id="g92">
    <path
       fill="none"
       stroke="#000000"
       stroke-width="4"
       stroke-linecap="round"
       stroke-linejoin="round"
       d="m 458.487,456.811 0.59,-0.739 3.098,-1.03 2.135,-0.401 1.958,0.481"
       id="path92" />
  </g>
  <g
     id="g93">
    <path
       fill="none"
       stroke="#000000"
       stroke-width="4"
       stroke-linecap="round"
       stroke-linejoin="round"
       d="m 469.901,457.328 -0.429,1.018 -0.403,4.594 0.42,1.614 1.144,1.585 1.264,0.376 1.041,-0.406 2.017,-2.453 1.02,-0.783 0.729,-1.298 0.012,-1.967 -1.508,-2.747 -1.139,-1.22 -1.26,0.152 -2.787,1.628 -0.734,1.178"
       id="path93" />
  </g>
  <g
     id="g94">
    <path
       fill="none"
       stroke="#000000"
       stroke-width="4"
       stroke-linecap="round"
       stroke-linejoin="round"
       d="m 479.034,456.926 1.222,1.723 0.734,7.249 0.42,-2.356 -0.619,-4.696 0.295,-2.288 0.624,-0.944 1.668,-1.362 3.389,0.082"
       id="path94" />
  </g>
  <g
     id="g95">
    <path
       fill="none"
       stroke="#000000"
       stroke-width="4"
       stroke-linecap="round"
       stroke-linejoin="round"
       d="m -487.612,439.753 -0.318,0.726 0.374,3.555 -0.473,4.069 -0.013,8.289 0.422,1.997 0.02,4.11 0.568,6.243 -0.161,2.632 0.566,5.11 0.279,0.641 0.155,-0.243"
       id="path95" />
  </g>
  <g
     id="g96">
    <path
       fill="none"
       stroke="#000000"
       stroke-width="4"
       stroke-linecap="round"
       stroke-linejoin="round"
       d="m -487.263,440.484 0.411,-1.176 1.348,-1.42 0.948,-0.379 1.653,-0.068 4.305,1.415 1.288,0.72 1.032,1.068 0.423,1.42 0.258,4.243 -0.465,3.436 0.02,2.334 -0.503,2.312 -1.079,1.863 -1.702,1.771 -2.007,0.731 -2.887,0.039"
       id="path96" />
  </g>
  <g
     id="g97">
    <path
       fill="none"
       stroke="#000000"
       stroke-width="4"
       stroke-linecap="round"
       stroke-linejoin="round"
       d="m -469.383,460.19 -0.88,-1.15 -0.671,0.198 -1.309,1.177 -1.69,2.719 -0.532,1.241 -0.245,1.948 0.68,3.716 0.95,1.235 0.959,0.667 1.194,-0.233 0.489,-0.478 3.211,-6.894 0.761,-2.667 -0.035,-1.812 -0.639,1.643 -0.095,2.313 0.775,4.754 0.493,0.899 0.914,0.753 0.55,0.003 0.904,-0.855"
       id="path97" />
  </g>
  <g
     id="g98">
    <path
       fill="none"
       stroke="#000000"
       stroke-width="4"
       stroke-linecap="round"
       stroke-linejoin="round"
       d="m -460.998,462.449 -0.625,-1.084 0.244,-0.284 0.638,2.052 0.894,6.5 -0.654,-3.643 -0.132,-2.741 0.255,-2.097 0.884,-2.859 1.299,-1.498 1.316,-0.524 2.49,-0.179 1.981,0.846"
       id="path98" />
  </g>
  <g
     id="g99">
    <path
       fill="none"
       stroke="#000000"
       stroke-width="4"
       stroke-linecap="round"
       stroke-linejoin="round"
       d="m -444.29,457.41 -0.828,-0.482 -0.722,0.044 -3.151,2.782 -1.089,1.667 -0.058,0.638 1.1,1.173 3.732,0.685 1.079,0.734 1.836,1.927 0.454,0.866 -0.051,0.663 -1.315,1.406 -2.855,1.014 -2.548,-0.104 -0.858,-0.514 0.902,0.104"
       id="path99" />
  </g>
  <g
     id="g100">
    <path
       fill="none"
       stroke="#000000"
       stroke-width="4"
       stroke-linecap="round"
       stroke-linejoin="round"
       d="m -434.344,465.962 1.975,-0.845 1.31,-1.067 1.935,-2.949 0.134,-1.473 -1.913,-1.647 -1.023,0.324 -1.264,1.144 -2.43,3.897 -0.189,2.351 1.106,2.643 1.887,1.005 2.546,-0.276 3.012,-1.012 3.139,-1.568"
       id="path100" />
  </g>
  <g
     id="g101">
    <path
       fill="none"
       stroke="#000000"
       stroke-width="4"
       stroke-linecap="round"
       stroke-linejoin="round"
       d="m -421.04,462.274 1.354,6.684 0.162,-5.804 1.137,-3.12 0.704,-1.016 1.363,-1.055 3.454,-0.706"
       id="path101" />
  </g>
  <g
     id="g102">
    <path
       fill="none"
       stroke="#000000"
       stroke-width="4"
       stroke-linecap="round"
       stroke-linejoin="round"
       d="M -610,440.412 V 476"
       id="path102" />
  </g>
  <g
     id="g103">
    <path
       fill="none"
       stroke="#000000"
       stroke-width="4"
       stroke-linecap="round"
       stroke-linejoin="round"
       d="m -611.269,441 h 61.044"
       id="path103" />
  </g>
  <g
     id="g104">
    <path
       fill="none"
       stroke="#000000"
       stroke-width="4"
       stroke-linecap="round"
       stroke-linejoin="round"
       d="m -342.552,441 h 58.305"
       id="path104" />
  </g>
  <g
     id="g105">
    <path
       fill="none"
       stroke="#000000"
       stroke-width="4"
       stroke-linecap="round"
       stroke-linejoin="round"
       d="m -167.931,441 h 42.01"
       id="path105" />
  </g>
  <g
     id="g106">
    <path
       fill="none"
       stroke="#000000"
       stroke-width="4"
       stroke-linecap="round"
       stroke-linejoin="round"
       d="M 85.1589,441 H 140.193"
       id="path106" />
  </g>
  <g
     id="g107">
    <path
       fill="none"
       stroke="#000000"
       stroke-width="4"
       stroke-linecap="round"
       stroke-linejoin="round"
       d="m 260.383,441 h 58.384"
       id="path107" />
  </g>
  <g
     id="g108">
    <path
       fill="none"
       stroke="#000000"
       stroke-width="4"
       stroke-linecap="round"
       stroke-linejoin="round"
       d="M 530.813,441 H 563"
       id="path108" />
  </g>
  <g
     id="g109">
    <path
       fill="none"
       stroke="#000000"
       stroke-width="4"
       stroke-linecap="round"
       stroke-linejoin="round"
       d="m -609.595,477 h 56.226"
       id="path109" />
  </g>
  <g
     id="g110">
    <path
       fill="none"
       stroke="#000000"
       stroke-width="4"
       stroke-linecap="round"
       stroke-linejoin="round"
       d="m -342.71,477 h 53.726"
       id="path110" />
  </g>
  <g
     id="g111">
    <path
       fill="none"
       stroke="#000000"
       stroke-width="4"
       stroke-linecap="round"
       stroke-linejoin="round"
       d="m -167.24,477 h 41.247"
       id="path111" />
  </g>
  <g
     id="g112">
    <path
       fill="none"
       stroke="#000000"
       stroke-width="4"
       stroke-linecap="round"
       stroke-linejoin="round"
       d="M 89.7392,477 H 138.998"
       id="path112" />
  </g>
  <g
     id="g113">
    <path
       fill="none"
       stroke="#000000"
       stroke-width="4"
       stroke-linecap="round"
       stroke-linejoin="round"
       d="M 260.186,477 H 316.64"
       id="path113" />
  </g>
  <g
     id="g114">
    <path
       fill="none"
       stroke="#000000"
       stroke-width="4"
       stroke-linecap="round"
       stroke-linejoin="round"
       d="M 531.222,477 H 560"
       id="path114" />
  </g>
  <g
     id="g115">
    <path
       fill="none"
       stroke="#000000"
       stroke-width="4"
       stroke-linecap="round"
       stroke-linejoin="round"
       d="M 562,442 V 418"
       id="path115" />
  </g>
  <g
     id="g116">
    <path
       fill="none"
       stroke="#000000"
       stroke-width="4"
       stroke-linecap="round"
       stroke-linejoin="round"
       d="m 562,479 v 20"
       id="path116" />
  </g>
  <g
     id="g117">
    <path
       fill="none"
       stroke="#000000"
       stroke-width="4"
       stroke-linecap="round"
       stroke-linejoin="round"
       d="m 561.287,499.498 33.912,-39.564"
       id="path117" />
  </g>
  <g
     id="g118">
    <path
       fill="none"
       stroke="#000000"
       stroke-width="4"
       stroke-linecap="round"
       stroke-linejoin="round"
       d="m 562,418 33.802,43.02"
       id="path118" />
  </g>
  <g
     id="g119">
    <path
       fill="#909090"
       fill-rule="evenodd"
       d="m 136,474.375 -3.5,0.625 -1,-1 -1,1 -9,-1 -1,1 -1,-1 -1.5,-0.5 -2,-0.25 -4.5,0.75 -1,-1 -0.5,0.5 -0.25,1.5 H 99.5 l -1,-1 -1,1 L 94,474.375 92.5,474 91,472.5 90.5,466 85,444.5 86.5,443 h 31 l 1,1 1,-1 h 4 l 1,1 1,-1 h 12.25 l 0.5,1.75 1.5,0.5 0.25,1.25 1,1 -1,1 v 2 l -1,1 1,1 v 18 l -2,2 -0.25,1.25 -1.75,0.625"
       id="path119" />
  </g>
  <g
     id="g120">
    <path
       fill="#909090"
       fill-rule="evenodd"
       d="m -130,474.25 -18.5,0.75 -2,-2 -1,1 -16.25,1 -0.25,-1.5 -2,-2 -0.375,-2.5 0.125,-6 0.375,-2 0.875,-15.5 2.5,-2.5 h 41 l 1.5,1.5 -0.5,10.5 -1.25,9 0.125,6 -0.375,1.5 -2.5,2.5 -1.5,0.25"
       id="path120" />
  </g>
  <g
     id="g121">
    <path
       fill="#909090"
       fill-rule="evenodd"
       d="m -300.25,474.75 h -2.5 l -0.5,-1.5 -1.25,-0.25 -2,2 h -5 l -1,-1 -1,1 h -3 l -2,-2 -2,2 -16,-1 -1,1 -1,-1 -1.25,-0.25 -0.25,-1.25 -2,-2 1,-1 -1,-1 1,-1 -1.25,-3.5 -0.75,-5.5 1,-1 -1,-1 0.5,-3.5 0.875,-3 0.625,-5.5 1.5,-1.5 9.5,0.875 10.5,-0.875 1,1 1,-1 h 9 l 1,1 1,-1 17.5,0.875 3.5,1.125 1.5,1.5 0.375,1.5 0.625,3.5 1,1 -2,2 v 8 l -1,1 1,1 -1,1 v 1 l -1,1 1,1 -2,2 v 1 l -1.5,1.5 -8,1 -1,-1 -1,1 -1,-1 -0.5,0.5 -0.25,1.25"
       id="path121" />
  </g>
  <g
     id="g122">
    <path
       fill="#909090"
       fill-rule="evenodd"
       d="m -558.25,475 h -31.25 l -2,-2 h -1 l -2,2 h -5 l -2,-2 -1,1 -1,-1 -1,1 h -1 l -1.5,-1.5 V 443 h 36.5 l 0.5,0.5 -1,1 0.5,0.5 1.25,-0.25 0.5,-1.75 h 16.25 l 1.5,1.5 -0.75,8.5 -2.625,7 -2.125,10 -1.75,5"
       id="path122" />
  </g>
  <g
     id="g123">
    <path
       fill="#909090"
       fill-rule="evenodd"
       d="m 307,474.375 h -4 l -1.5,-0.375 -2,-2 -3.5,0.625 -2,0.875 -1.5,0.5 -1,-1 -1,1 -1.5,0.25 -12,0.25 -3.5,-0.5 -1,1 -1,-1 h -2 l -1,-1 -1,1 h -1 l -1,1 -1,-1 h -1 l -2.5,-2.5 v -4 l -1,-1 1,-1 -1,-20 2.5,-2.5 h 31.25 l 0.25,1.5 0.5,0.5 1,-1 1,1 1,-1 21,-1 0.5,0.5 -1,1 v 1 l 1,1 -1,1 -0.75,16.5 -1.25,7.5 -1.5,1.5 -4,1 -1,-1 -1,1 -1.5,0.375"
       id="path123" />
  </g>
  <g
     id="g124">
    <path
       fill="#909090"
       fill-rule="evenodd"
       d="m 570.5,486 -4.25,-1.25 -1.75,-6.75 -0.5,-4.5 -0.5,-0.5 -1,1 -1.5,0.25 h -6 L 553.5,474 551,471.5 V 470 l -1,0.5 v 2 l -2.5,2.5 -5.5,-0.75 -5,0.125 -1.5,-0.375 -2.5,-2.5 -2.875,-29.25 1.875,-0.125 21.5,1.875 1,1 0.5,-0.5 0.25,-1.5 8.75,-0.75 1.75,-0.5 -0.75,-9.25 1.5,-1.5 1.5,-0.375 2.75,-0.375 4.625,6.75 1.125,3 0.5,3.5 0.5,0.5 1,-1 h 2 l 1.5,1.5 2,3 3.5,4.5 1.5,2.5 2,2 v 3 l 1,1 -1,1 -3,5 -1.5,1.5 -4,1 -1.5,1.5 -0.5,1.5 -4,7 -0.5,1.5 -5.5,5.5"
       id="path124" />
  </g>
</g>
<metadata
   id="metadata125">
  <rdf:RDF>
    <cc:Work
       rdf:about="">
      <dc:title>Documentation</dc:title>
    </cc:Work>
  </rdf:RDF>
</metadata>
</svg>
